<?xml version="1.0" encoding="utf-8"?>
<!-- Generator: Adobe Illustrator 20.0.0, SVG Export Plug-In . SVG Version: 6.00 Build 0)  -->
<svg version="1.1" id="图层_1" xmlns="http://www.w3.org/2000/svg" xmlns:xlink="http://www.w3.org/1999/xlink" x="0px" y="0px"
	 viewBox="0 0 10 11.5" style="enable-background:new 0 0 10 11.5;" xml:space="preserve">
<style type="text/css">
	.st0{fill:#999999;}
	.st1{fill:#7CA4FF;}
</style>
<path class="st0" d="M9.1,0.6H8.2v1.3H1.9V0.6h-1C0.4,0.6,0,1,0,1.6v8.9c0,0.5,0.4,1,0.9,1h8.1c0.5,0,0.9-0.4,0.9-1V1.6
	C10,1.1,9.6,0.6,9.1,0.6z M1.8,6.3h5v0.6h-5C1.8,6.9,1.8,6.3,1.8,6.3z M8.1,8.9H1.8V8.3h6.3V8.9z M8.1,5.1H1.8V4.4h6.3V5.1z
	 M2.8,1.3h4.4c0.2,0,0.3-0.1,0.3-0.3V0.3C7.5,0.2,7.4,0,7.2,0H2.8C2.7,0,2.6,0.1,2.6,0.1C2.5,0.2,2.5,0.2,2.5,0.3V1
	C2.5,1.1,2.6,1.3,2.8,1.3z"/>
</svg>
